<svg width="40" height="40" viewBox="0 0 40 40" fill="none" xmlns="http://www.w3.org/2000/svg">
<path d="M20 0.498535C30.7696 0.498536 39.5 9.22898 39.5 19.9985C39.5 30.7681 30.7696 39.4985 20 39.4985C9.23045 39.4985 0.5 30.7681 0.5 19.9985C0.5 9.22898 9.23045 0.498535 20 0.498535Z" fill="white" fill-opacity="0.2" stroke="#E66F6F"/>
<path d="M14.6143 26.6573V14.0051C14.6143 13.7954 14.7005 13.5943 14.854 13.446C15.0075 13.2977 15.2156 13.2144 15.4327 13.2144H20.4841C20.9182 13.2144 21.3345 13.3811 21.6414 13.6777L25.5928 17.4956C25.8998 17.7921 26.0723 18.1943 26.0724 18.6137V26.6573C26.0724 26.8671 25.9861 27.0682 25.8327 27.2165C25.6792 27.3648 25.471 27.4481 25.2539 27.4481H15.4327C15.2156 27.4481 15.0075 27.3648 14.854 27.2165C14.7005 27.0682 14.6143 26.8671 14.6143 26.6573Z" stroke="#E66F6F" stroke-width="1.5" stroke-linejoin="round"/>
<path d="M20.3438 13.2144V17.9589C20.3438 18.1687 20.43 18.3698 20.5835 18.5181C20.737 18.6664 20.9451 18.7497 21.1622 18.7497H26.0728" stroke="#E66F6F" stroke-width="1.5" stroke-linejoin="round"/>
</svg>
