<svg width="40" height="40" viewBox="0 0 40 40" fill="none" xmlns="http://www.w3.org/2000/svg">
<path d="M20 0.498535C30.7696 0.498536 39.5 9.22898 39.5 19.9985C39.5 30.7681 30.7696 39.4985 20 39.4985C9.23045 39.4985 0.5 30.7681 0.5 19.9985C0.5 9.22898 9.23045 0.498535 20 0.498535Z" fill="white" fill-opacity="0.2" stroke="#5EC9FF"/>
<g clip-path="url(#clip0_3699_22752)">
<path d="M10.5225 15.5866C10.5225 14.9575 10.7811 14.3541 11.2416 13.9092C11.7021 13.4643 12.3266 13.2144 12.9778 13.2144H27.7096C28.3608 13.2144 28.9853 13.4643 29.4458 13.9092C29.9063 14.3541 30.1649 14.9575 30.1649 15.5866V25.0758C30.1649 25.705 29.9063 26.3084 29.4458 26.7533C28.9853 27.1982 28.3608 27.4481 27.7096 27.4481H12.9778C12.3266 27.4481 11.7021 27.1982 11.2416 26.7533C10.7811 26.3084 10.5225 25.705 10.5225 25.0758V15.5866ZM12.9778 14.4005C12.6522 14.4005 12.3399 14.5255 12.1097 14.7479C11.8795 14.9704 11.7501 15.2721 11.7501 15.5866V15.844L20.3437 20.8259L28.9373 15.844V15.5866C28.9373 15.2721 28.8079 14.9704 28.5777 14.7479C28.3475 14.5255 28.0352 14.4005 27.7096 14.4005H12.9778ZM28.9373 17.2271L23.1575 20.5779L28.9373 24.0142V17.2271ZM28.8955 25.383L21.9716 21.2659L20.3437 22.2089L18.7158 21.2659L11.7919 25.3818C11.8616 25.6342 12.0157 25.8573 12.2301 26.0165C12.4446 26.1756 12.7074 26.2619 12.9778 26.262H27.7096C27.9799 26.262 28.2426 26.1759 28.457 26.017C28.6714 25.858 28.8256 25.6352 28.8955 25.383ZM11.7501 24.0142L17.5299 20.5779L11.7501 17.2271V24.0142Z" fill="#5EC9FF"/>
</g>
<defs>
<clipPath id="clip0_3699_22752">
<rect width="19.6425" height="18.9783" fill="white" transform="translate(10.5225 10.8423)"/>
</clipPath>
</defs>
</svg>
