<svg width="40" height="40" viewBox="0 0 40 40" fill="none" xmlns="http://www.w3.org/2000/svg">
<path d="M20 0.498535C30.7696 0.498536 39.5 9.22898 39.5 19.9985C39.5 30.7681 30.7696 39.4985 20 39.4985C9.23045 39.4985 0.5 30.7681 0.5 19.9985C0.5 9.22898 9.23045 0.498535 20 0.498535Z" fill="white" fill-opacity="0.2" stroke="#31FBFB"/>
<path d="M19.1012 26.7586C19.6418 26.7586 20.0986 26.5784 20.4716 26.218C20.8446 25.8569 21.0312 25.4156 21.0312 24.8939V21.0722H23.7453V19.5935H20.2669V23.5179C20.1105 23.3533 19.935 23.2308 19.7402 23.1501C19.5461 23.0694 19.3331 23.0291 19.1012 23.0291C18.5612 23.0291 18.1044 23.2093 17.7307 23.5697C17.3577 23.9308 17.1712 24.3721 17.1712 24.8939C17.1712 25.4156 17.3577 25.8569 17.7307 26.218C18.1044 26.5784 18.5612 26.7586 19.1012 26.7586ZM14.9927 28.9748C14.5349 28.9748 14.153 28.8269 13.8469 28.5311C13.5408 28.2354 13.3874 27.8664 13.3867 27.424V13.2417C13.3867 12.8 13.5401 12.4312 13.8469 12.1355C14.1536 11.8398 14.5356 11.6916 14.9927 11.6909H22.828L27.3001 16.0119V27.424C27.3001 27.8657 27.1471 28.2348 26.841 28.5311C26.5349 28.8275 26.1526 28.9754 25.6941 28.9748H14.9927ZM22.3311 16.492V12.6511H14.9927C14.8397 12.6511 14.6992 12.7126 14.5713 12.8355C14.4435 12.9584 14.3799 13.0938 14.3805 13.2417V27.424C14.3805 27.5712 14.4441 27.7066 14.5713 27.8302C14.6986 27.9537 14.8387 28.0152 14.9917 28.0145H25.6951C25.8475 28.0145 25.9876 27.9531 26.1155 27.8302C26.2434 27.7073 26.307 27.5716 26.3063 27.4231V16.492H22.3311Z" fill="#31FBFB"/>
</svg>
