<svg width="40" height="40" viewBox="0 0 40 40" fill="none" xmlns="http://www.w3.org/2000/svg">
<path d="M20 0.498535C30.7696 0.498536 39.5 9.22898 39.5 19.9985C39.5 30.7681 30.7696 39.4985 20 39.4985C9.23045 39.4985 0.5 30.7681 0.5 19.9985C0.5 9.22898 9.23045 0.498535 20 0.498535Z" fill="white" fill-opacity="0.2" stroke="#C3A7FF"/>
<path fill-rule="evenodd" clip-rule="evenodd" d="M26.891 13.2144C27.304 13.2142 27.7018 13.3649 28.0046 13.6362C28.3074 13.9075 28.4928 14.2794 28.5238 14.6773L28.5279 14.7959V25.8666C28.528 26.2656 28.3721 26.6499 28.0913 26.9425C27.8105 27.235 27.4256 27.4142 27.0138 27.4442L26.891 27.4481H13.7961C13.3831 27.4482 12.9853 27.2975 12.6825 27.0262C12.3797 26.7549 12.1942 26.3831 12.1633 25.9852L12.1592 25.8666V14.7959C12.159 14.3969 12.315 14.0126 12.5958 13.72C12.8766 13.4274 13.2615 13.2482 13.6733 13.2183L13.7961 13.2144H26.891ZM26.891 14.7959H13.7961V25.8666H26.891V14.7959ZM18.9849 16.8819L19.4089 17.0638L19.6855 17.1903L20.0023 17.3406L20.3542 17.5129L20.7388 17.7106L21.1538 17.9321L21.3715 18.0522L21.7955 18.2934L22.1834 18.5243L22.5353 18.7402L22.8463 18.9403L23.2392 19.2012L23.5371 19.4092L23.6148 19.4646C23.7411 19.5554 23.8437 19.6734 23.9144 19.8094C23.9851 19.9453 24.0219 20.0953 24.0219 20.2474C24.0219 20.3995 23.9851 20.5495 23.9144 20.6855C23.8437 20.8214 23.7411 20.9395 23.6148 21.0303L23.3505 21.2161L22.9904 21.4597L22.699 21.6486L22.3675 21.8566L21.9968 22.0804L21.5884 22.3176L21.1513 22.562L20.7348 22.785L20.3493 22.9827L19.9973 23.1566L19.6814 23.3053L19.1724 23.533L18.9841 23.6121C18.8396 23.6723 18.6825 23.699 18.5254 23.6901C18.3683 23.6812 18.2156 23.637 18.0793 23.561C17.943 23.4849 17.8271 23.3791 17.7406 23.2521C17.6541 23.1251 17.5996 22.9803 17.5813 22.8293L17.5339 22.3825L17.5077 22.0867L17.4733 21.5617L17.4545 21.16L17.4422 20.7211L17.4389 20.4886L17.4373 20.2474C17.4373 20.084 17.4389 19.9258 17.4422 19.773L17.4545 19.3341L17.4733 18.9332L17.4954 18.5718L17.5199 18.2547L17.5813 17.6664C17.5995 17.5152 17.654 17.3702 17.7404 17.243C17.8269 17.1157 17.9429 17.0098 18.0793 16.9336C18.2156 16.8574 18.3685 16.813 18.5258 16.8041C18.683 16.7951 18.8403 16.8218 18.9849 16.8819ZM19.485 18.8596L19.1282 18.6872L19.1044 19.0723L19.0864 19.508L19.0758 19.9904L19.0741 20.2474L19.0758 20.5044L19.0864 20.986L19.0946 21.2098L19.1159 21.621L19.1282 21.8068L19.4834 21.6344L19.8819 21.432L20.3198 21.1995L20.5522 21.0714L21.0032 20.8136L21.4075 20.5716L21.7643 20.3502L21.9248 20.2474L21.5917 20.0339L21.2103 19.8014C20.9933 19.6716 20.7742 19.5451 20.5531 19.4219L20.3214 19.2945L19.8844 19.0621L19.485 18.8596Z" fill="#C3A7FF"/>
</svg>
