<svg width="40" height="40" viewBox="0 0 40 40" fill="none" xmlns="http://www.w3.org/2000/svg">
<path d="M20 0.5C30.7696 0.500001 39.5 9.23045 39.5 20C39.5 30.7696 30.7696 39.5 20 39.5C9.23045 39.5 0.5 30.7696 0.5 20C0.5 9.23045 9.23045 0.5 20 0.5Z" fill="white" fill-opacity="0.2" stroke="#FEEDB6"/>
<path d="M26.891 14.0068V23.496H17.0698V14.0068H26.891ZM26.891 12.4253H17.0698C16.1695 12.4253 15.4329 13.137 15.4329 14.0068V23.496C15.4329 24.3658 16.1695 25.0775 17.0698 25.0775H26.891C27.7913 25.0775 28.5279 24.3658 28.5279 23.496V14.0068C28.5279 13.137 27.7913 12.4253 26.891 12.4253ZM19.9343 20.072L21.3175 21.8591L23.3472 19.4077L26.0726 22.7052H17.8882L19.9343 20.072ZM12.1592 15.5883V26.659C12.1592 27.5289 12.8958 28.2406 13.7961 28.2406H25.2542V26.659H13.7961V15.5883H12.1592Z" fill="#FEEDB6"/>
</svg>
