<svg width="58" height="108" viewBox="0 0 58 108" fill="none" xmlns="http://www.w3.org/2000/svg">
<path d="M1.1585 103.329C1.05183 103.329 0.977167 103.292 0.9345 103.217C0.891833 103.142 0.8705 103.062 0.8705 102.977C0.881167 102.796 0.923833 102.694 0.9985 102.673C1.07317 102.652 1.16383 102.641 1.2705 102.641C1.5585 102.641 1.77717 102.582 1.9265 102.465C2.07583 102.348 2.19317 102.193 2.2785 102.001C2.3745 101.809 2.46517 101.612 2.5505 101.409L5.3505 94.785C5.45717 94.529 5.4785 94.337 5.4145 94.209C5.3505 94.0703 5.24383 93.9743 5.0945 93.921C4.94517 93.857 4.77983 93.809 4.5985 93.777C4.4385 93.745 4.33183 93.7183 4.2785 93.697C4.22517 93.665 4.1985 93.569 4.1985 93.409C4.1985 93.2277 4.2625 93.1317 4.3905 93.121C4.5185 93.0997 4.66783 93.089 4.8385 93.089C5.27583 93.089 5.64917 93.1317 5.9585 93.217C6.26783 93.3023 6.5345 93.4677 6.7585 93.713C6.9825 93.9477 7.1905 94.305 7.3825 94.785L10.0705 101.409C10.1452 101.59 10.2252 101.777 10.3105 101.969C10.3958 102.161 10.5078 102.321 10.6465 102.449C10.7958 102.566 10.9825 102.63 11.2065 102.641C11.3238 102.641 11.4145 102.652 11.4785 102.673C11.5532 102.694 11.5958 102.796 11.6065 102.977C11.6065 103.062 11.5798 103.142 11.5265 103.217C11.4838 103.292 11.4145 103.329 11.3185 103.329C10.9772 103.308 10.6785 103.292 10.4225 103.281C10.1665 103.281 9.8785 103.281 9.5585 103.281C8.92917 103.281 8.26783 103.297 7.5745 103.329C7.46783 103.329 7.39317 103.292 7.3505 103.217C7.30783 103.142 7.2865 103.062 7.2865 102.977C7.29717 102.796 7.33983 102.694 7.4145 102.673C7.48917 102.652 7.57983 102.641 7.6865 102.641C8.20917 102.641 8.49183 102.545 8.5345 102.353C8.58783 102.161 8.53983 101.846 8.3905 101.409L7.8465 100.081H3.8945C3.7345 100.486 3.61717 100.78 3.5425 100.961C3.4785 101.142 3.43583 101.26 3.4145 101.313C3.40383 101.366 3.39317 101.398 3.3825 101.409C3.26517 101.772 3.20117 102.044 3.1905 102.225C3.1905 102.396 3.27583 102.508 3.4465 102.561C3.62783 102.614 3.9265 102.641 4.3425 102.641C4.45983 102.641 4.5505 102.652 4.6145 102.673C4.68917 102.694 4.73183 102.796 4.7425 102.977C4.7425 103.062 4.71583 103.142 4.6625 103.217C4.61983 103.292 4.5505 103.329 4.4545 103.329C4.11317 103.308 3.8145 103.292 3.5585 103.281C3.31317 103.281 3.0305 103.281 2.7105 103.281C2.49717 103.281 2.31583 103.281 2.1665 103.281C2.02783 103.292 1.88383 103.297 1.7345 103.297C1.58517 103.308 1.39317 103.318 1.1585 103.329ZM4.1985 99.393H7.5585L5.9425 95.281H5.8945L4.1985 99.393ZM15.0036 103.473C14.1823 103.473 13.4943 103.329 12.9396 103.041C12.3956 102.742 12.1236 102.316 12.1236 101.761C12.1236 101.452 12.2143 101.201 12.3956 101.009C12.5876 100.817 12.833 100.721 13.1316 100.721C13.3236 100.721 13.4783 100.774 13.5956 100.881C13.7236 100.977 13.7876 101.046 13.7876 101.089C13.7876 101.121 13.7236 101.196 13.5956 101.313C13.4783 101.42 13.4196 101.596 13.4196 101.841C13.4196 102.14 13.5583 102.39 13.8356 102.593C14.1236 102.785 14.5556 102.881 15.1316 102.881C15.633 102.881 16.0223 102.774 16.2996 102.561C16.5876 102.337 16.7316 102.028 16.7316 101.633C16.7316 101.313 16.625 101.068 16.4116 100.897C16.209 100.716 15.9423 100.572 15.6116 100.465C15.2916 100.358 14.945 100.252 14.5716 100.145C14.209 100.038 13.8623 99.905 13.5316 99.745C13.201 99.585 12.929 99.3663 12.7156 99.089C12.513 98.801 12.4116 98.4223 12.4116 97.953C12.4116 97.473 12.5556 97.0783 12.8436 96.769C13.1316 96.4597 13.4996 96.2303 13.9476 96.081C14.3956 95.921 14.849 95.841 15.3076 95.841C15.7023 95.841 16.0756 95.8997 16.4276 96.017C16.7796 96.1237 17.0676 96.289 17.2916 96.513C17.5263 96.737 17.6436 97.0197 17.6436 97.361C17.6436 97.6277 17.5583 97.8677 17.3876 98.081C17.217 98.2943 16.9823 98.401 16.6836 98.401C16.4916 98.401 16.3316 98.353 16.2036 98.257C16.0863 98.1503 16.0276 98.0757 16.0276 98.033C16.0276 98.0117 16.065 97.9743 16.1396 97.921C16.225 97.857 16.305 97.777 16.3796 97.681C16.4543 97.5743 16.4916 97.441 16.4916 97.281C16.4703 96.9717 16.321 96.7423 16.0436 96.593C15.7663 96.4437 15.457 96.369 15.1156 96.369C14.7423 96.369 14.3956 96.4597 14.0756 96.641C13.7556 96.8223 13.5956 97.0837 13.5956 97.425C13.5956 97.7343 13.6596 97.9743 13.7876 98.145C13.9263 98.3157 14.1396 98.465 14.4276 98.593C14.7263 98.7103 15.1103 98.8437 15.5796 98.993C16.049 99.1423 16.4596 99.297 16.8116 99.457C17.1743 99.617 17.4516 99.8303 17.6436 100.097C17.8463 100.353 17.9476 100.705 17.9476 101.153C17.9476 101.601 17.8196 102.001 17.5636 102.353C17.3076 102.705 16.9556 102.982 16.5076 103.185C16.0703 103.377 15.569 103.473 15.0036 103.473ZM22.0654 103.553C21.7454 103.553 21.4414 103.473 21.1534 103.313C20.8654 103.153 20.6254 102.908 20.4334 102.577C20.252 102.246 20.1614 101.83 20.1614 101.329V96.625L19.2334 96.657C19.1587 96.657 19.1 96.6303 19.0574 96.577C19.0254 96.513 19.0094 96.4437 19.0094 96.369C19.0094 96.1557 19.084 96.033 19.2334 96.001C19.628 95.9263 19.9267 95.8037 20.1294 95.633C20.332 95.4517 20.4867 95.2383 20.5934 94.993C20.7107 94.7477 20.8174 94.481 20.9134 94.193C20.9454 94.1077 20.9934 94.0543 21.0574 94.033C21.1214 94.001 21.1907 93.985 21.2654 93.985C21.3294 93.985 21.3987 94.001 21.4734 94.033C21.5587 94.065 21.6014 94.1237 21.6014 94.209L21.4894 96.033L23.3614 95.921C23.4574 95.9103 23.5214 95.937 23.5534 96.001C23.5854 96.065 23.6014 96.1397 23.6014 96.225C23.6014 96.3317 23.58 96.4383 23.5374 96.545C23.5054 96.6517 23.4627 96.705 23.4094 96.705L21.6174 96.657V101.521C21.6174 101.83 21.6814 102.113 21.8094 102.369C21.948 102.625 22.1934 102.753 22.5454 102.753C22.6627 102.753 22.796 102.742 22.9454 102.721C23.0947 102.7 23.2547 102.652 23.4254 102.577C23.468 102.556 23.5107 102.54 23.5534 102.529C23.596 102.508 23.6387 102.497 23.6814 102.497C23.7667 102.497 23.8307 102.534 23.8734 102.609C23.916 102.673 23.9534 102.742 23.9854 102.817C24.0174 102.913 23.9907 102.988 23.9054 103.041C23.5747 103.254 23.2707 103.393 22.9934 103.457C22.716 103.521 22.4067 103.553 22.0654 103.553ZM29.0559 103.473C28.3092 103.473 27.6532 103.297 27.0879 102.945C26.5332 102.593 26.1012 102.134 25.7919 101.569C25.4825 101.004 25.3279 100.401 25.3279 99.761C25.3279 99.1317 25.4399 98.5717 25.6639 98.081C25.8879 97.5903 26.1812 97.1797 26.5439 96.849C26.9172 96.5183 27.3225 96.2677 27.7599 96.097C28.1972 95.9263 28.6292 95.841 29.0559 95.841C29.8025 95.841 30.4532 96.017 31.0079 96.369C31.5732 96.721 32.0105 97.1797 32.3199 97.745C32.6292 98.3103 32.7839 98.913 32.7839 99.553C32.7839 100.182 32.6665 100.742 32.4319 101.233C32.2079 101.724 31.9092 102.134 31.5359 102.465C31.1732 102.796 30.7732 103.046 30.3359 103.217C29.8985 103.388 29.4719 103.473 29.0559 103.473ZM29.0559 102.881C29.5785 102.881 29.9892 102.726 30.2879 102.417C30.5972 102.108 30.8159 101.702 30.9439 101.201C31.0825 100.689 31.1519 100.14 31.1519 99.553C31.1519 98.9877 31.0825 98.4703 30.9439 98.001C30.8052 97.5317 30.5812 97.153 30.2719 96.865C29.9625 96.577 29.5572 96.433 29.0559 96.433C28.5332 96.433 28.1172 96.5877 27.8079 96.897C27.4985 97.1957 27.2799 97.5957 27.1519 98.097C27.0239 98.5877 26.9599 99.1317 26.9599 99.729C26.9599 100.284 27.0239 100.801 27.1519 101.281C27.2905 101.761 27.5145 102.15 27.8239 102.449C28.1332 102.737 28.5439 102.881 29.0559 102.881ZM34.1278 103.329C34.0531 103.329 33.9891 103.297 33.9358 103.233C33.8931 103.158 33.8717 103.084 33.8717 103.009C33.8931 102.849 33.9358 102.764 33.9998 102.753C34.0638 102.732 34.1491 102.721 34.2558 102.721C34.5544 102.721 34.7571 102.673 34.8638 102.577C34.9704 102.47 35.0291 102.332 35.0398 102.161C35.0611 101.99 35.0718 101.814 35.0718 101.633V97.969C35.0718 97.777 35.0611 97.601 35.0398 97.441C35.0291 97.2703 34.9704 97.137 34.8638 97.041C34.7571 96.9343 34.5544 96.881 34.2558 96.881C34.1598 96.881 34.0691 96.8703 33.9838 96.849C33.9091 96.817 33.8717 96.721 33.8717 96.561C33.8717 96.401 33.9571 96.305 34.1278 96.273C34.6184 96.1983 34.9918 96.1237 35.2478 96.049C35.5144 95.9743 35.7118 95.9103 35.8398 95.857C35.9784 95.8037 36.1011 95.7717 36.2078 95.761C36.2931 95.7503 36.3624 95.7663 36.4158 95.809C36.4798 95.8517 36.5118 95.937 36.5118 96.065V97.057H36.5598C36.9224 96.705 37.2958 96.417 37.6798 96.193C38.0638 95.9583 38.4158 95.841 38.7358 95.841C39.1091 95.841 39.3918 95.9797 39.5838 96.257C39.7864 96.5343 39.8878 96.8277 39.8878 97.137C39.8878 97.4037 39.8024 97.665 39.6318 97.921C39.4611 98.1663 39.2051 98.289 38.8638 98.289C38.6931 98.289 38.5544 98.257 38.4478 98.193C38.3518 98.1183 38.2984 98.065 38.2878 98.033C38.2878 98.0117 38.3358 97.9477 38.4318 97.841C38.5384 97.7343 38.5918 97.601 38.5918 97.441C38.5918 97.249 38.5384 97.0943 38.4318 96.977C38.3358 96.8597 38.2024 96.801 38.0318 96.801C37.8504 96.801 37.6158 96.8917 37.3278 97.073C37.0504 97.2543 36.7838 97.473 36.5278 97.729V101.633C36.5278 101.814 36.5331 101.99 36.5438 102.161C36.5651 102.332 36.6291 102.47 36.7358 102.577C36.8531 102.673 37.0611 102.721 37.3598 102.721C37.4558 102.721 37.5358 102.732 37.5998 102.753C37.6744 102.764 37.7171 102.849 37.7278 103.009C37.7278 103.084 37.7064 103.158 37.6638 103.233C37.6211 103.297 37.5571 103.329 37.4718 103.329C37.1624 103.308 36.8744 103.292 36.6078 103.281C36.3518 103.281 36.0798 103.281 35.7918 103.281C35.5038 103.281 35.2318 103.281 34.9758 103.281C34.7198 103.292 34.4371 103.308 34.1278 103.329ZM41.6766 106.769C41.3673 106.769 41.074 106.7 40.7966 106.561C40.53 106.422 40.3166 106.236 40.1566 106.001C39.9966 105.777 39.9166 105.532 39.9166 105.265C39.9273 104.977 39.9913 104.753 40.1086 104.593C40.2153 104.444 40.338 104.337 40.4766 104.273C40.6153 104.22 40.7326 104.188 40.8286 104.177C40.9246 104.166 40.962 104.161 40.9406 104.161C41.1433 104.161 41.298 104.198 41.4046 104.273C41.5113 104.358 41.5646 104.428 41.5646 104.481C41.5646 104.502 41.522 104.55 41.4366 104.625C41.362 104.71 41.3193 104.854 41.3086 105.057C41.298 105.249 41.3566 105.436 41.4846 105.617C41.6126 105.798 41.81 105.889 42.0766 105.889C42.3753 105.889 42.6473 105.777 42.8926 105.553C43.138 105.34 43.3566 105.073 43.5486 104.753C43.7406 104.433 43.906 104.124 44.0446 103.825C44.1193 103.59 44.114 103.345 44.0286 103.089C43.7726 102.513 43.522 101.9 43.2766 101.249C43.0313 100.598 42.7913 99.969 42.5566 99.361C42.3326 98.753 42.1086 98.2197 41.8846 97.761C41.714 97.3663 41.5486 97.089 41.3886 96.929C41.2286 96.7583 40.9886 96.6517 40.6686 96.609C40.53 96.5877 40.434 96.5663 40.3806 96.545C40.338 96.5237 40.3113 96.4437 40.3006 96.305C40.29 96.1237 40.338 96.0277 40.4446 96.017C40.562 95.9957 40.7006 95.9797 40.8606 95.969C41.522 95.937 42.0393 96.033 42.4126 96.257C42.786 96.481 43.09 96.8597 43.3246 97.393C43.474 97.7237 43.6393 98.1343 43.8206 98.625C44.002 99.1157 44.194 99.6117 44.3966 100.113C44.5993 100.614 44.7966 101.068 44.9886 101.473H45.0366L46.6046 97.281C46.7113 96.9717 46.7166 96.7797 46.6206 96.705C46.5246 96.6303 46.3166 96.593 45.9966 96.593C45.9006 96.593 45.8206 96.5877 45.7566 96.577C45.6926 96.5557 45.6553 96.465 45.6446 96.305C45.6446 96.241 45.6606 96.1717 45.6926 96.097C45.7353 96.0223 45.794 95.985 45.8686 95.985C46.178 95.9957 46.4446 96.0063 46.6686 96.017C46.8926 96.0277 47.1433 96.033 47.4206 96.033C47.6126 96.033 47.7673 96.033 47.8846 96.033C48.002 96.0223 48.1246 96.017 48.2526 96.017C48.3806 96.0063 48.546 95.9957 48.7486 95.985C48.834 95.985 48.8926 96.0223 48.9246 96.097C48.9673 96.1717 48.9886 96.241 48.9886 96.305C48.978 96.465 48.9353 96.5557 48.8606 96.577C48.7966 96.5877 48.722 96.593 48.6366 96.593C48.2846 96.593 48.002 96.657 47.7886 96.785C47.586 96.913 47.41 97.1637 47.2606 97.537C47.2606 97.537 47.202 97.6757 47.0846 97.953C46.978 98.2303 46.834 98.593 46.6526 99.041C46.4713 99.489 46.2793 99.9637 46.0766 100.465C45.874 100.956 45.682 101.425 45.5006 101.873C45.3193 102.321 45.17 102.689 45.0526 102.977C44.9353 103.265 44.8713 103.42 44.8606 103.441C44.722 103.772 44.5513 104.129 44.3486 104.513C44.1566 104.908 43.9273 105.27 43.6606 105.601C43.4046 105.942 43.1113 106.22 42.7806 106.433C42.45 106.657 42.082 106.769 41.6766 106.769ZM51.5786 103.473C50.928 103.473 50.4053 103.286 50.0106 102.913C49.6266 102.54 49.4346 102.092 49.4346 101.569C49.4346 101.025 49.5733 100.598 49.8506 100.289C50.1386 99.9797 50.512 99.7503 50.9706 99.601C51.44 99.4517 51.9466 99.3503 52.4906 99.297C53.0453 99.2437 53.584 99.201 54.1066 99.169V97.905C54.1066 97.4037 53.9786 97.0143 53.7226 96.737C53.4773 96.449 53.056 96.305 52.4586 96.305C52.16 96.305 51.8773 96.401 51.6106 96.593C51.3546 96.785 51.2266 97.0623 51.2266 97.425C51.2266 97.5957 51.2693 97.7397 51.3546 97.857C51.44 97.9743 51.5253 98.065 51.6106 98.129C51.696 98.193 51.7386 98.2357 51.7386 98.257C51.7386 98.2997 51.6746 98.3797 51.5466 98.497C51.4293 98.6037 51.264 98.657 51.0506 98.657C50.72 98.657 50.464 98.5343 50.2826 98.289C50.1013 98.0437 50.0106 97.7717 50.0106 97.473C50.0106 97.0677 50.1333 96.7477 50.3786 96.513C50.6346 96.2783 50.96 96.1077 51.3546 96.001C51.7493 95.8943 52.1493 95.841 52.5546 95.841C53.0346 95.841 53.4986 95.8997 53.9466 96.017C54.4053 96.1343 54.7786 96.3583 55.0666 96.689C55.3653 97.0197 55.5146 97.5157 55.5146 98.177V101.905C55.5253 102.012 55.552 102.14 55.5946 102.289C55.6373 102.438 55.7173 102.572 55.8346 102.689C55.9626 102.796 56.1333 102.849 56.3466 102.849C56.4213 102.849 56.48 102.865 56.5226 102.897C56.5653 102.918 56.5866 102.988 56.5866 103.105C56.5866 103.201 56.5333 103.276 56.4266 103.329C56.32 103.382 56.1973 103.42 56.0586 103.441C55.92 103.462 55.8026 103.473 55.7066 103.473C55.312 103.473 54.96 103.361 54.6506 103.137C54.3413 102.902 54.16 102.582 54.1066 102.177C53.872 102.604 53.52 102.929 53.0506 103.153C52.592 103.366 52.1013 103.473 51.5786 103.473ZM52.0906 102.609C52.4533 102.609 52.784 102.518 53.0826 102.337C53.392 102.156 53.6373 101.91 53.8186 101.601C54.0106 101.281 54.1066 100.929 54.1066 100.545V99.633C53.008 99.7077 52.224 99.8837 51.7546 100.161C51.2853 100.438 51.0506 100.892 51.0506 101.521C51.0506 102.246 51.3973 102.609 52.0906 102.609Z" fill="black"/>
<path d="M1 39.2207V81.7663C20.7084 88.0506 29.4262 81.7663 29.4262 81.7663C29.4262 81.7663 40.8893 88.0506 56.4707 81.285V47.4482" stroke="black" stroke-width="1.2" stroke-miterlimit="10" stroke-linecap="round"/>
<path d="M56.471 42.1177C56.722 42.1177 56.9256 41.9022 56.9256 41.6364C56.9256 41.3705 56.722 41.155 56.471 41.155C56.2199 41.155 56.0164 41.3705 56.0164 41.6364C56.0164 41.9022 56.2199 42.1177 56.471 42.1177Z" fill="black" stroke="black" stroke-width="1.2" stroke-miterlimit="10" stroke-linecap="round"/>
<path d="M29.4714 22.0215C29.9689 29.8174 35.8586 36.3108 43.5349 37.5986L43.9021 37.6562L46.3181 38.0078L43.9021 38.3604C36.1698 39.4818 30.1665 45.8705 29.4988 53.624L29.4714 53.9941L29.239 57.6426L29.0076 53.9941L28.9802 53.624C28.323 45.9934 22.498 39.685 14.9431 38.418L14.5769 38.3604L12.1599 38.0078L14.5769 37.6562C22.309 36.5348 28.3123 30.146 28.9802 22.3926L29.0076 22.0215L29.239 18.3721L29.4714 22.0215Z" fill="#FEEDB6" stroke="black"/>
<path d="M30.1394 21.9775V21.9785C30.6284 29.5103 36.2327 35.6971 43.6453 36.9414L43.9998 36.9971L50.9626 38.0078L43.9998 39.0205C36.531 40.1069 30.8088 46.1924 30.1667 53.6816L30.1394 54.0391L29.239 68.1592L28.3386 54.0391L28.3113 53.6816C27.6714 46.3118 22.1281 40.2997 14.8328 39.0752L14.4783 39.0205L7.51538 38.0078L14.4783 36.9971C21.9472 35.9107 27.6704 29.8244 28.3123 22.335L28.3386 21.9775L29.239 7.85742L30.1394 21.9775ZM28.6775 21.9941C28.1834 29.642 22.4143 36.0091 14.8904 37.2705L14.531 37.3262L13.2751 37.5049V38.4951L14.531 38.6719V38.6729C22.1101 39.7714 27.9989 46.045 28.6511 53.6426L28.6775 54.0049L28.74 55.0459H29.738L29.8005 54.0059C30.3023 46.2367 36.2482 39.7889 43.947 38.6729L43.946 38.6719L45.2029 38.4951V37.5049L43.946 37.3262H43.947C36.3684 36.2275 30.4805 29.9546 29.8279 22.3574L29.8005 21.9941L29.738 20.9531H28.74L28.6775 21.9941Z" fill="#1D1D1B" stroke="black"/>
</svg>
