<svg width="325" height="325" viewBox="0 0 325 325" fill="none" xmlns="http://www.w3.org/2000/svg">
<rect width="325" height="325" rx="162.5" fill="url(#paint0_linear_4080_22654)"/>
<g clip-path="url(#clip0_4080_22654)">
<path d="M89.2518 291.126C88.9718 291.126 88.7758 291.028 88.6638 290.832C88.5518 290.636 88.4958 290.426 88.4958 290.202C88.5238 289.726 88.6358 289.46 88.8318 289.404C89.0278 289.348 89.2658 289.32 89.5458 289.32C90.3018 289.32 90.8758 289.166 91.2678 288.858C91.6598 288.55 91.9678 288.144 92.1918 287.64C92.4438 287.136 92.6818 286.618 92.9058 286.086L100.256 268.698C100.536 268.026 100.592 267.522 100.424 267.186C100.256 266.822 99.9758 266.57 99.5838 266.43C99.1918 266.262 98.7578 266.136 98.2818 266.052C97.8618 265.968 97.5818 265.898 97.4418 265.842C97.3018 265.758 97.2318 265.506 97.2318 265.086C97.2318 264.61 97.3998 264.358 97.7358 264.33C98.0718 264.274 98.4638 264.246 98.9118 264.246C100.06 264.246 101.04 264.358 101.852 264.582C102.664 264.806 103.364 265.24 103.952 265.884C104.54 266.5 105.086 267.438 105.59 268.698L112.646 286.086C112.842 286.562 113.052 287.052 113.276 287.556C113.5 288.06 113.794 288.48 114.158 288.816C114.55 289.124 115.04 289.292 115.628 289.32C115.936 289.32 116.174 289.348 116.342 289.404C116.538 289.46 116.65 289.726 116.678 290.202C116.678 290.426 116.608 290.636 116.468 290.832C116.356 291.028 116.174 291.126 115.922 291.126C115.026 291.07 114.242 291.028 113.57 291C112.898 291 112.142 291 111.302 291C109.65 291 107.914 291.042 106.094 291.126C105.814 291.126 105.618 291.028 105.506 290.832C105.394 290.636 105.338 290.426 105.338 290.202C105.366 289.726 105.478 289.46 105.674 289.404C105.87 289.348 106.108 289.32 106.388 289.32C107.76 289.32 108.502 289.068 108.614 288.564C108.754 288.06 108.628 287.234 108.236 286.086L106.808 282.6H96.4338C96.0138 283.664 95.7058 284.434 95.5098 284.91C95.3418 285.386 95.2298 285.694 95.1738 285.834C95.1458 285.974 95.1178 286.058 95.0898 286.086C94.7818 287.038 94.6138 287.752 94.5858 288.228C94.5858 288.676 94.8098 288.97 95.2578 289.11C95.7338 289.25 96.5178 289.32 97.6098 289.32C97.9178 289.32 98.1558 289.348 98.3238 289.404C98.5198 289.46 98.6318 289.726 98.6598 290.202C98.6598 290.426 98.5898 290.636 98.4498 290.832C98.3378 291.028 98.1558 291.126 97.9038 291.126C97.0078 291.07 96.2238 291.028 95.5518 291C94.9078 291 94.1658 291 93.3258 291C92.7658 291 92.2898 291 91.8978 291C91.5338 291.028 91.1558 291.042 90.7638 291.042C90.3718 291.07 89.8678 291.098 89.2518 291.126ZM97.2318 280.794H106.052L101.81 270H101.684L97.2318 280.794ZM125.595 291.504C123.439 291.504 121.633 291.126 120.177 290.37C118.749 289.586 118.035 288.466 118.035 287.01C118.035 286.198 118.273 285.54 118.749 285.036C119.253 284.532 119.897 284.28 120.681 284.28C121.185 284.28 121.591 284.42 121.899 284.7C122.235 284.952 122.403 285.134 122.403 285.246C122.403 285.33 122.235 285.526 121.899 285.834C121.591 286.114 121.437 286.576 121.437 287.22C121.437 288.004 121.801 288.662 122.529 289.194C123.285 289.698 124.419 289.95 125.931 289.95C127.247 289.95 128.269 289.67 128.997 289.11C129.753 288.522 130.131 287.71 130.131 286.674C130.131 285.834 129.851 285.19 129.291 284.742C128.759 284.266 128.059 283.888 127.191 283.608C126.351 283.328 125.441 283.048 124.461 282.768C123.509 282.488 122.599 282.138 121.731 281.718C120.863 281.298 120.149 280.724 119.589 279.996C119.057 279.24 118.791 278.246 118.791 277.014C118.791 275.754 119.169 274.718 119.925 273.906C120.681 273.094 121.647 272.492 122.823 272.1C123.999 271.68 125.189 271.47 126.393 271.47C127.429 271.47 128.409 271.624 129.333 271.932C130.257 272.212 131.013 272.646 131.601 273.234C132.217 273.822 132.525 274.564 132.525 275.46C132.525 276.16 132.301 276.79 131.853 277.35C131.405 277.91 130.789 278.19 130.005 278.19C129.501 278.19 129.081 278.064 128.745 277.812C128.437 277.532 128.283 277.336 128.283 277.224C128.283 277.168 128.381 277.07 128.577 276.93C128.801 276.762 129.011 276.552 129.207 276.3C129.403 276.02 129.501 275.67 129.501 275.25C129.445 274.438 129.053 273.836 128.325 273.444C127.597 273.052 126.785 272.856 125.889 272.856C124.909 272.856 123.999 273.094 123.159 273.57C122.319 274.046 121.899 274.732 121.899 275.628C121.899 276.44 122.067 277.07 122.403 277.518C122.767 277.966 123.327 278.358 124.083 278.694C124.867 279.002 125.875 279.352 127.107 279.744C128.339 280.136 129.417 280.542 130.341 280.962C131.293 281.382 132.021 281.942 132.525 282.642C133.057 283.314 133.323 284.238 133.323 285.414C133.323 286.59 132.987 287.64 132.315 288.564C131.643 289.488 130.719 290.216 129.543 290.748C128.395 291.252 127.079 291.504 125.595 291.504ZM144.132 291.714C143.292 291.714 142.494 291.504 141.738 291.084C140.982 290.664 140.352 290.02 139.848 289.152C139.372 288.284 139.134 287.192 139.134 285.876V273.528L136.698 273.612C136.502 273.612 136.348 273.542 136.236 273.402C136.152 273.234 136.11 273.052 136.11 272.856C136.11 272.296 136.306 271.974 136.698 271.89C137.734 271.694 138.518 271.372 139.05 270.924C139.582 270.448 139.988 269.888 140.268 269.244C140.576 268.6 140.856 267.9 141.108 267.144C141.192 266.92 141.318 266.78 141.486 266.724C141.654 266.64 141.836 266.598 142.032 266.598C142.2 266.598 142.382 266.64 142.578 266.724C142.802 266.808 142.914 266.962 142.914 267.186L142.62 271.974L147.534 271.68C147.786 271.652 147.954 271.722 148.038 271.89C148.122 272.058 148.164 272.254 148.164 272.478C148.164 272.758 148.108 273.038 147.996 273.318C147.912 273.598 147.8 273.738 147.66 273.738L142.956 273.612V286.38C142.956 287.192 143.124 287.934 143.46 288.606C143.824 289.278 144.468 289.614 145.392 289.614C145.7 289.614 146.05 289.586 146.442 289.53C146.834 289.474 147.254 289.348 147.702 289.152C147.814 289.096 147.926 289.054 148.038 289.026C148.15 288.97 148.262 288.942 148.374 288.942C148.598 288.942 148.766 289.04 148.878 289.236C148.99 289.404 149.088 289.586 149.172 289.782C149.256 290.034 149.186 290.23 148.962 290.37C148.094 290.93 147.296 291.294 146.568 291.462C145.84 291.63 145.028 291.714 144.132 291.714ZM162.482 291.504C160.522 291.504 158.8 291.042 157.316 290.118C155.86 289.194 154.726 287.99 153.914 286.506C153.102 285.022 152.696 283.44 152.696 281.76C152.696 280.108 152.99 278.638 153.578 277.35C154.166 276.062 154.936 274.984 155.888 274.116C156.868 273.248 157.932 272.59 159.08 272.142C160.228 271.694 161.362 271.47 162.482 271.47C164.442 271.47 166.15 271.932 167.606 272.856C169.09 273.78 170.238 274.984 171.05 276.468C171.862 277.952 172.268 279.534 172.268 281.214C172.268 282.866 171.96 284.336 171.344 285.624C170.756 286.912 169.972 287.99 168.992 288.858C168.04 289.726 166.99 290.384 165.842 290.832C164.694 291.28 163.574 291.504 162.482 291.504ZM162.482 289.95C163.854 289.95 164.932 289.544 165.716 288.732C166.528 287.92 167.102 286.856 167.438 285.54C167.802 284.196 167.984 282.754 167.984 281.214C167.984 279.73 167.802 278.372 167.438 277.14C167.074 275.908 166.486 274.914 165.674 274.158C164.862 273.402 163.798 273.024 162.482 273.024C161.11 273.024 160.018 273.43 159.206 274.242C158.394 275.026 157.82 276.076 157.484 277.392C157.148 278.68 156.98 280.108 156.98 281.676C156.98 283.132 157.148 284.49 157.484 285.75C157.848 287.01 158.436 288.032 159.248 288.816C160.06 289.572 161.138 289.95 162.482 289.95ZM175.796 291.126C175.6 291.126 175.432 291.042 175.292 290.874C175.18 290.678 175.124 290.482 175.124 290.286C175.18 289.866 175.292 289.642 175.46 289.614C175.628 289.558 175.852 289.53 176.132 289.53C176.916 289.53 177.448 289.404 177.728 289.152C178.008 288.872 178.162 288.508 178.19 288.06C178.246 287.612 178.274 287.15 178.274 286.674V277.056C178.274 276.552 178.246 276.09 178.19 275.67C178.162 275.222 178.008 274.872 177.728 274.62C177.448 274.34 176.916 274.2 176.132 274.2C175.88 274.2 175.642 274.172 175.418 274.116C175.222 274.032 175.124 273.78 175.124 273.36C175.124 272.94 175.348 272.688 175.796 272.604C177.084 272.408 178.064 272.212 178.736 272.016C179.436 271.82 179.954 271.652 180.29 271.512C180.654 271.372 180.976 271.288 181.256 271.26C181.48 271.232 181.662 271.274 181.802 271.386C181.97 271.498 182.054 271.722 182.054 272.058V274.662H182.18C183.132 273.738 184.112 272.982 185.12 272.394C186.128 271.778 187.052 271.47 187.892 271.47C188.872 271.47 189.614 271.834 190.118 272.562C190.65 273.29 190.916 274.06 190.916 274.872C190.916 275.572 190.692 276.258 190.244 276.93C189.796 277.574 189.124 277.896 188.228 277.896C187.78 277.896 187.416 277.812 187.136 277.644C186.884 277.448 186.744 277.308 186.716 277.224C186.716 277.168 186.842 277 187.094 276.72C187.374 276.44 187.514 276.09 187.514 275.67C187.514 275.166 187.374 274.76 187.094 274.452C186.842 274.144 186.492 273.99 186.044 273.99C185.568 273.99 184.952 274.228 184.196 274.704C183.468 275.18 182.768 275.754 182.096 276.426V286.674C182.096 287.15 182.11 287.612 182.138 288.06C182.194 288.508 182.362 288.872 182.642 289.152C182.95 289.404 183.496 289.53 184.28 289.53C184.532 289.53 184.742 289.558 184.91 289.614C185.106 289.642 185.218 289.866 185.246 290.286C185.246 290.482 185.19 290.678 185.078 290.874C184.966 291.042 184.798 291.126 184.574 291.126C183.762 291.07 183.006 291.028 182.306 291C181.634 291 180.92 291 180.164 291C179.408 291 178.694 291 178.022 291C177.35 291.028 176.608 291.07 175.796 291.126ZM195.612 300.156C194.8 300.156 194.03 299.974 193.302 299.61C192.602 299.246 192.042 298.756 191.622 298.14C191.202 297.552 190.992 296.908 190.992 296.208C191.02 295.452 191.188 294.864 191.496 294.444C191.776 294.052 192.098 293.772 192.462 293.604C192.826 293.464 193.134 293.38 193.386 293.352C193.638 293.324 193.736 293.31 193.68 293.31C194.212 293.31 194.618 293.408 194.898 293.604C195.178 293.828 195.318 294.01 195.318 294.15C195.318 294.206 195.206 294.332 194.982 294.528C194.786 294.752 194.674 295.13 194.646 295.662C194.618 296.166 194.772 296.656 195.108 297.132C195.444 297.608 195.962 297.846 196.662 297.846C197.446 297.846 198.16 297.552 198.804 296.964C199.448 296.404 200.022 295.704 200.526 294.864C201.03 294.024 201.464 293.212 201.828 292.428C202.024 291.812 202.01 291.168 201.786 290.496C201.114 288.984 200.456 287.374 199.812 285.666C199.168 283.958 198.538 282.306 197.922 280.71C197.334 279.114 196.746 277.714 196.158 276.51C195.71 275.474 195.276 274.746 194.856 274.326C194.436 273.878 193.806 273.598 192.966 273.486C192.602 273.43 192.35 273.374 192.21 273.318C192.098 273.262 192.028 273.052 192 272.688C191.972 272.212 192.098 271.96 192.378 271.932C192.686 271.876 193.05 271.834 193.47 271.806C195.206 271.722 196.564 271.974 197.544 272.562C198.524 273.15 199.322 274.144 199.938 275.544C200.33 276.412 200.764 277.49 201.24 278.778C201.716 280.066 202.22 281.368 202.752 282.684C203.284 284 203.802 285.19 204.306 286.254H204.432L208.548 275.25C208.828 274.438 208.842 273.934 208.59 273.738C208.338 273.542 207.792 273.444 206.952 273.444C206.7 273.444 206.49 273.43 206.322 273.402C206.154 273.346 206.056 273.108 206.028 272.688C206.028 272.52 206.07 272.338 206.154 272.142C206.266 271.946 206.42 271.848 206.616 271.848C207.428 271.876 208.128 271.904 208.716 271.932C209.304 271.96 209.962 271.974 210.69 271.974C211.194 271.974 211.6 271.974 211.908 271.974C212.216 271.946 212.538 271.932 212.874 271.932C213.21 271.904 213.644 271.876 214.176 271.848C214.4 271.848 214.554 271.946 214.638 272.142C214.75 272.338 214.806 272.52 214.806 272.688C214.778 273.108 214.666 273.346 214.47 273.402C214.302 273.43 214.106 273.444 213.882 273.444C212.958 273.444 212.216 273.612 211.656 273.948C211.124 274.284 210.662 274.942 210.27 275.922C210.27 275.922 210.116 276.286 209.808 277.014C209.528 277.742 209.15 278.694 208.674 279.87C208.198 281.046 207.694 282.292 207.162 283.608C206.63 284.896 206.126 286.128 205.65 287.304C205.174 288.48 204.782 289.446 204.474 290.202C204.166 290.958 203.998 291.364 203.97 291.42C203.606 292.288 203.158 293.226 202.626 294.234C202.122 295.27 201.52 296.222 200.82 297.09C200.148 297.986 199.378 298.714 198.51 299.274C197.642 299.862 196.676 300.156 195.612 300.156ZM221.605 291.504C219.897 291.504 218.525 291.014 217.489 290.034C216.481 289.054 215.977 287.878 215.977 286.506C215.977 285.078 216.341 283.958 217.069 283.146C217.825 282.334 218.805 281.732 220.009 281.34C221.241 280.948 222.571 280.682 223.999 280.542C225.455 280.402 226.869 280.29 228.241 280.206V276.888C228.241 275.572 227.905 274.55 227.233 273.822C226.589 273.066 225.483 272.688 223.915 272.688C223.131 272.688 222.389 272.94 221.689 273.444C221.017 273.948 220.681 274.676 220.681 275.628C220.681 276.076 220.793 276.454 221.017 276.762C221.241 277.07 221.465 277.308 221.689 277.476C221.913 277.644 222.025 277.756 222.025 277.812C222.025 277.924 221.857 278.134 221.521 278.442C221.213 278.722 220.779 278.862 220.219 278.862C219.351 278.862 218.679 278.54 218.203 277.896C217.727 277.252 217.489 276.538 217.489 275.754C217.489 274.69 217.811 273.85 218.455 273.234C219.127 272.618 219.981 272.17 221.017 271.89C222.053 271.61 223.103 271.47 224.167 271.47C225.427 271.47 226.645 271.624 227.821 271.932C229.025 272.24 230.005 272.828 230.761 273.696C231.545 274.564 231.937 275.866 231.937 277.602V287.388C231.965 287.668 232.035 288.004 232.147 288.396C232.259 288.788 232.469 289.138 232.777 289.446C233.113 289.726 233.561 289.866 234.121 289.866C234.317 289.866 234.471 289.908 234.583 289.992C234.695 290.048 234.751 290.23 234.751 290.538C234.751 290.79 234.611 290.986 234.331 291.126C234.051 291.266 233.729 291.364 233.365 291.42C233.001 291.476 232.693 291.504 232.441 291.504C231.405 291.504 230.481 291.21 229.669 290.622C228.857 290.006 228.381 289.166 228.241 288.102C227.625 289.222 226.701 290.076 225.469 290.664C224.265 291.224 222.977 291.504 221.605 291.504ZM222.949 289.236C223.901 289.236 224.769 288.998 225.553 288.522C226.365 288.046 227.009 287.402 227.485 286.59C227.989 285.75 228.241 284.826 228.241 283.818V281.424C225.357 281.62 223.299 282.082 222.067 282.81C220.835 283.538 220.219 284.728 220.219 286.38C220.219 288.284 221.129 289.236 222.949 289.236Z" fill="white"/>
<path d="M89.161 122.443V233.571C140.499 249.985 163.207 233.571 163.207 233.571C163.207 233.571 193.067 249.985 233.655 232.314V143.933" stroke="white" stroke-width="4" stroke-miterlimit="10" stroke-linecap="round"/>
<path d="M233.655 130.011C234.309 130.011 234.839 129.448 234.839 128.753C234.839 128.059 234.309 127.496 233.655 127.496C233.001 127.496 232.471 128.059 232.471 128.753C232.471 129.448 233.001 130.011 233.655 130.011Z" fill="white" stroke="white" stroke-width="4" stroke-miterlimit="10" stroke-linecap="round"/>
<path d="M160.235 161.138C158.981 141.325 143.842 124.887 124.269 122.047L105.159 119.276L124.269 116.506C143.842 113.665 158.981 97.2045 160.235 77.4144L162.72 38.2998L165.204 77.4144C166.458 97.2278 181.597 113.665 201.171 116.506L220.281 119.276L201.171 122.047C181.597 124.887 166.458 141.348 165.204 161.138L162.72 200.253L160.235 161.138Z" fill="url(#paint1_radial_4080_22654)"/>
<path d="M162.72 56.5535L164.043 77.4845C165.344 97.8334 180.877 114.737 201.008 117.67L212.2 119.3L201.008 120.93C180.877 123.863 165.344 140.766 164.043 161.115L162.72 182.046L161.396 161.115C160.096 140.766 144.562 123.863 124.431 120.93L113.239 119.3L124.431 117.67C144.562 114.737 160.096 97.8334 161.396 77.4845L162.72 56.5535ZM162.72 20L159.074 77.3215C157.844 96.6926 143.239 112.548 124.083 115.342L97.0788 119.277L124.083 123.211C143.239 126.005 157.821 141.861 159.074 161.232L162.72 218.553L166.365 161.232C167.596 141.861 182.201 126.005 201.357 123.211L228.361 119.277L201.357 115.342C182.201 112.548 167.619 96.6926 166.365 77.3215L162.72 20Z" fill="white"/>
</g>
<defs>
<linearGradient id="paint0_linear_4080_22654" x1="162.5" y1="-1.03041e-06" x2="126.494" y2="338.457" gradientUnits="userSpaceOnUse">
<stop/>
<stop offset="0.6" stop-color="#273166"/>
<stop offset="1"/>
</linearGradient>
<radialGradient id="paint1_radial_4080_22654" cx="0" cy="0" r="1" gradientUnits="userSpaceOnUse" gradientTransform="translate(162.72 119.276) scale(70.1456 70.3364)">
<stop stop-color="#FEEDB6"/>
<stop offset="0.61" stop-color="white"/>
</radialGradient>
<clipPath id="clip0_4080_22654">
<rect width="148" height="284" fill="white" transform="translate(88 20)"/>
</clipPath>
</defs>
</svg>
